<svg xmlns="http://www.w3.org/2000/svg" width="152.951" height="70.866" viewBox="0 0 152.951 70.866">
  <g id="logo" transform="translate(-222.049 -1224.973)">
    <g id="Group_64" data-name="Group 64">
      <g id="Group_62" data-name="Group 62">
        <path id="Path_107" data-name="Path 107" d="M276.962,1240.335a6.761,6.761,0,0,1,3.286,12.674v-2.8a8.684,8.684,0,0,0-4.33-7.5l-2.433-1.4A6.7,6.7,0,0,1,276.962,1240.335Z" fill="#c8c4a0"/>
        <path id="Path_108" data-name="Path 108" d="M224.113,1247.1a6.762,6.762,0,0,1,10.246-5.8l-2.433,1.4a8.686,8.686,0,0,0-4.33,7.5v2.8A6.761,6.761,0,0,1,224.113,1247.1Z" fill="#c8c4a0"/>
        <path id="Path_109" data-name="Path 109" d="M260.691,1287.007a6.769,6.769,0,0,1-13.538,0c0-.036.005-.072.005-.108l2.434,1.406a8.687,8.687,0,0,0,8.66,0l2.434-1.406C260.687,1286.935,260.691,1286.971,260.691,1287.007Z" fill="#c8c4a0"/>
      </g>
      <g id="Group_63" data-name="Group 63">
        <path id="Path_110" data-name="Path 110" d="M247.153,1233.806a6.769,6.769,0,1,1,13.538,0c0,.036,0,.071-.005.107l-2.434-1.406a8.686,8.686,0,0,0-8.66,0l-2.434,1.4C247.158,1233.877,247.153,1233.842,247.153,1233.806Z" fill="#f5851f"/>
        <path id="Path_111" data-name="Path 111" d="M230.882,1280.477A6.761,6.761,0,0,1,227.6,1267.8v2.8a8.686,8.686,0,0,0,4.33,7.5l2.433,1.405A6.713,6.713,0,0,1,230.882,1280.477Z" fill="#f5851f"/>
        <path id="Path_112" data-name="Path 112" d="M276.962,1280.478a6.714,6.714,0,0,1-3.477-.968l2.433-1.405a8.684,8.684,0,0,0,4.33-7.5v-2.8a6.761,6.761,0,0,1-3.286,12.674Z" fill="#f5851f"/>
      </g>
      <path id="Path_113" data-name="Path 113" d="M245.736,1237.117l.405-.234,4.483-2.588a6.613,6.613,0,0,1,6.6,0l7.1,4.1-10.4,6.005-10.4-6.005,2.216-1.28Z" fill="#c8c4a0"/>
      <path id="Path_114" data-name="Path 114" d="M253.922,1273.61l-11.435-6.6V1255l11.435,6.6,11.435-6.6v12.012Z" fill="#c8c4a0"/>
      <path id="Path_115" data-name="Path 115" d="M280.248,1265.52v-10.228a8.825,8.825,0,1,0-8.735-15.128l-8.848-5.108a8.75,8.75,0,0,0,.09-1.25,8.833,8.833,0,1,0-17.576,1.25l-8.848,5.108a8.825,8.825,0,1,0-8.735,15.129v10.227a8.825,8.825,0,1,0,8.735,15.128l8.848,5.109a8.832,8.832,0,1,0,17.576,1.25,8.729,8.729,0,0,0-.09-1.25l8.848-5.108a8.825,8.825,0,1,0,8.735-15.129Zm-3.286-25.185a6.761,6.761,0,0,1,3.286,12.674v-2.8a8.684,8.684,0,0,0-4.33-7.5l-2.433-1.4A6.7,6.7,0,0,1,276.962,1240.335Zm-23.04-13.3a6.777,6.777,0,0,1,6.769,6.769c0,.036,0,.071-.005.107l-2.434-1.406a8.686,8.686,0,0,0-8.66,0l-2.434,1.4c0-.036-.005-.071-.005-.107A6.777,6.777,0,0,1,253.922,1227.037Zm-8.186,10.08.405-.234,4.483-2.588a6.613,6.613,0,0,1,6.6,0l7.1,4.1-10.4,6.005-10.4-6.005Zm-9.706,5.6,1.812-1.046h0l3.614-2.087,12.466,7.2,12.466-7.2,5.174,2.987.252.146,3.072,1.774a6.575,6.575,0,0,1,1.823,1.563l-9.288,5.363h0l-10.833,6.255-2.666,1.539-22.787-13.156a6.582,6.582,0,0,1,1.823-1.565l3.072-1.773Zm29.327,24.287-11.435,6.6-11.435-6.6V1255l11.435,6.6,11.435-6.6Zm-41.244-19.9a6.762,6.762,0,0,1,10.246-5.8l-2.433,1.4a8.686,8.686,0,0,0-4.33,7.5v2.8A6.76,6.76,0,0,1,224.113,1247.1Zm6.769,33.373A6.761,6.761,0,0,1,227.6,1267.8v2.8a8.686,8.686,0,0,0,4.33,7.5l2.433,1.405A6.713,6.713,0,0,1,230.882,1280.477Zm6.959-1.34h0l-1.7-.983-3.18-1.836a6.616,6.616,0,0,1-3.3-5.712v-20.4a6.577,6.577,0,0,1,.443-2.361l10.32,5.958v14.4l12.467,7.2v11.916a6.56,6.56,0,0,1-2.266-.8l-3.073-1.774-1.815-1.048Zm16.081,14.638a6.776,6.776,0,0,1-6.769-6.768c0-.036.005-.071.005-.108l2.434,1.406a8.681,8.681,0,0,0,8.66,0l2.434-1.406c0,.037.005.072.005.108A6.776,6.776,0,0,1,253.922,1293.775ZM270,1279.138l-7.895,4.557-1.815,1.048-3.073,1.774a6.553,6.553,0,0,1-2.266.8V1275.4l12.467-7.2v-14.4l10.32-5.958a6.577,6.577,0,0,1,.443,2.361v20.4a6.615,6.615,0,0,1-3.3,5.712l-3.072,1.774Zm6.959,1.34a6.714,6.714,0,0,1-3.477-.968l2.433-1.405a8.684,8.684,0,0,0,4.33-7.5v-2.8a6.761,6.761,0,0,1-3.286,12.674Z" fill="#231f20"/>
      <path id="Path_116" data-name="Path 116" d="M236.03,1242.721l1.812-1.046h0l3.614-2.087,12.466,7.2,12.466-7.2,5.174,2.987.252.146,3.072,1.774a6.575,6.575,0,0,1,1.823,1.563l-9.288,5.363h0l-10.833,6.255-2.666,1.539-22.787-13.156a6.582,6.582,0,0,1,1.823-1.565l3.072-1.773Z" fill="#f5851f"/>
      <path id="Path_117" data-name="Path 117" d="M270,1279.138l-7.895,4.557-1.815,1.048-3.073,1.774a6.553,6.553,0,0,1-2.266.8V1275.4l12.467-7.2v-14.4l10.32-5.958a6.577,6.577,0,0,1,.443,2.361v20.4a6.615,6.615,0,0,1-3.3,5.712l-3.072,1.774Z" fill="#f5851f"/>
      <path id="Path_118" data-name="Path 118" d="M237.841,1279.137h0l-1.7-.983-3.18-1.836a6.616,6.616,0,0,1-3.3-5.712v-20.4a6.577,6.577,0,0,1,.443-2.361l10.32,5.958v14.4l12.467,7.2v11.916a6.56,6.56,0,0,1-2.266-.8l-3.073-1.774-1.815-1.048Z" fill="#f5851f"/>
    </g>
    <g id="Group_67" data-name="Group 67" transform="translate(7 3.902)">
      <path id="Path_119" data-name="Path 119" d="M316.773,1249.43q9.091.04,9.042,11.482v11.769h-3.506V1260.9q.033-7.938-5.778-7.962a5.03,5.03,0,0,0-4.08,1.995,8.206,8.206,0,0,0-1.742,5.4v12.353h-3.5v-12.911a7.321,7.321,0,0,0-1.674-4.961,5.19,5.19,0,0,0-4.085-1.94q-5.835-.025-5.846,7.484v12.328h-3.534v-23.424h3.583l-.018,4.108a6.856,6.856,0,0,1,6.509-4,7.623,7.623,0,0,1,7.284,4.713A7.7,7.7,0,0,1,316.773,1249.43Z" transform="translate(0 0.393)" fill="#231f20"/>
      <rect id="Rectangle_4" data-name="Rectangle 4" width="3.505" height="30.502" transform="translate(338.34 1242.572)" fill="#231f20"/>
      <g id="Group_65" data-name="Group 65" transform="translate(330.325 1242.592)">
        <rect id="Rectangle_5" data-name="Rectangle 5" width="3.505" height="30.502" transform="translate(0 7.245)" fill="#231f20"/>
        <rect id="Rectangle_6" data-name="Rectangle 6" width="3.505" height="3.8" fill="#231f20"/>
      </g>
      <g id="Group_66" data-name="Group 66" transform="translate(364.495 1242.592)">
        <rect id="Rectangle_7" data-name="Rectangle 7" width="3.505" height="23.237" transform="translate(0 7.245)" fill="#231f20"/>
        <rect id="Rectangle_8" data-name="Rectangle 8" width="3.505" height="3.8" fill="#231f20"/>
      </g>
      <path id="Path_120" data-name="Path 120" d="M345.8,1256.227q.534,2.2,4.849,3.233,6.439,1.544,7.437,5.935a5.466,5.466,0,0,1,.152,1.334,5.727,5.727,0,0,1-2.325,4.446,9.517,9.517,0,0,1-6.456,2.121,18.969,18.969,0,0,1-7.093-1.8l1.416-3.227a14.721,14.721,0,0,0,5.67,1.516,6.44,6.44,0,0,0,.86-.04,5.838,5.838,0,0,0,3.376-1.253h-.023a2.446,2.446,0,0,0,1.072-1.828,3.355,3.355,0,0,0-.089-.52q-.534-2.106-4.848-3.231-6.483-1.861-7.438-5.845l.022.022a6.49,6.49,0,0,1-.174-1.426,5.74,5.74,0,0,1,2.19-4.377v.022a9.4,9.4,0,0,1,4.916-2.127,12.189,12.189,0,0,1,1.652-.106,18.671,18.671,0,0,1,6.575,1.544l-1.281,3.274a15.232,15.232,0,0,0-5.287-1.312,10.628,10.628,0,0,0-1.085.086h.022a5.637,5.637,0,0,0-3.194,1.253,2.474,2.474,0,0,0-.98,1.783,2.679,2.679,0,0,0,.066.542Z" transform="translate(2.949 0.383)" fill="#231f20"/>
    </g>
  </g>
</svg>
